<svg xmlns="http://www.w3.org/2000/svg" viewBox="0 0 96 96"><defs><linearGradient id="g" x1="0" y1="0" x2="1" y2="1"><stop offset="0" stop-color="#7c4dff"/><stop offset="1" stop-color="#3d1d9e"/></linearGradient></defs><rect width="96" height="96" rx="48" fill="url(#g)"/><circle cx="48" cy="48" r="40" fill="#ffffff" fill-opacity=".12"/><g transform="translate(20 20) scale(2.333)" fill="#ffffff"><path d="m12 17.27 4.15 2.51c.76.46 1.69-.22 1.49-1.08l-1.1-4.72 3.67-3.18c.67-.58.31-1.68-.57-1.75l-4.83-.41-1.89-4.46c-.34-.81-1.5-.81-1.84 0L9.19 8.63l-4.83.41c-.88.07-1.24 1.17-.57 1.75l3.67 3.18-1.1 4.72c-.2.86.73 1.54 1.49 1.08z"/></g></svg>